<svg xmlns="http://www.w3.org/2000/svg" viewBox="0 0 600 600">
<defs>
<linearGradient id="bg" x1="0" y1="0" x2="1" y2="1"><stop offset="0" stop-color="#fdeed9"/><stop offset="1" stop-color="#f8d6a8"/></linearGradient>
<linearGradient id="scr" x1="0" y1="0" x2="1" y2="1"><stop offset="0" stop-color="#2447f5"/><stop offset="1" stop-color="#8a5cff"/></linearGradient>
</defs>
<rect width="600" height="600" fill="url(#bg)"/>
<ellipse cx="300" cy="530" rx="180" ry="14" fill="#0e1a2f" opacity=".12"/>
<rect x="190" y="150" width="220" height="320" rx="52" fill="#3a3a52"/><circle cx="228" cy="200" r="6" fill="#53536f"/><circle cx="257" cy="200" r="6" fill="#53536f"/><circle cx="286" cy="200" r="6" fill="#53536f"/><circle cx="315" cy="200" r="6" fill="#53536f"/><circle cx="344" cy="200" r="6" fill="#53536f"/><circle cx="373" cy="200" r="6" fill="#53536f"/><circle cx="228" cy="229" r="6" fill="#53536f"/><circle cx="257" cy="229" r="6" fill="#53536f"/><circle cx="286" cy="229" r="6" fill="#53536f"/><circle cx="315" cy="229" r="6" fill="#53536f"/><circle cx="344" cy="229" r="6" fill="#53536f"/><circle cx="373" cy="229" r="6" fill="#53536f"/><circle cx="228" cy="258" r="6" fill="#53536f"/><circle cx="257" cy="258" r="6" fill="#53536f"/><circle cx="286" cy="258" r="6" fill="#53536f"/><circle cx="315" cy="258" r="6" fill="#53536f"/><circle cx="344" cy="258" r="6" fill="#53536f"/><circle cx="373" cy="258" r="6" fill="#53536f"/><circle cx="228" cy="287" r="6" fill="#53536f"/><circle cx="257" cy="287" r="6" fill="#53536f"/><circle cx="286" cy="287" r="6" fill="#53536f"/><circle cx="315" cy="287" r="6" fill="#53536f"/><circle cx="344" cy="287" r="6" fill="#53536f"/><circle cx="373" cy="287" r="6" fill="#53536f"/><circle cx="228" cy="316" r="6" fill="#53536f"/><circle cx="257" cy="316" r="6" fill="#53536f"/><circle cx="286" cy="316" r="6" fill="#53536f"/><circle cx="315" cy="316" r="6" fill="#53536f"/><circle cx="344" cy="316" r="6" fill="#53536f"/><circle cx="373" cy="316" r="6" fill="#53536f"/><circle cx="228" cy="345" r="6" fill="#53536f"/><circle cx="257" cy="345" r="6" fill="#53536f"/><circle cx="286" cy="345" r="6" fill="#53536f"/><circle cx="315" cy="345" r="6" fill="#53536f"/><circle cx="344" cy="345" r="6" fill="#53536f"/><circle cx="373" cy="345" r="6" fill="#53536f"/><circle cx="228" cy="374" r="6" fill="#53536f"/><circle cx="257" cy="374" r="6" fill="#53536f"/><circle cx="286" cy="374" r="6" fill="#53536f"/><circle cx="315" cy="374" r="6" fill="#53536f"/><circle cx="344" cy="374" r="6" fill="#53536f"/><circle cx="373" cy="374" r="6" fill="#53536f"/><circle cx="228" cy="403" r="6" fill="#53536f"/><circle cx="257" cy="403" r="6" fill="#53536f"/><circle cx="286" cy="403" r="6" fill="#53536f"/><circle cx="315" cy="403" r="6" fill="#53536f"/><circle cx="344" cy="403" r="6" fill="#53536f"/><circle cx="373" cy="403" r="6" fill="#53536f"/><rect x="260" y="420" width="80" height="10" rx="5" fill="#ffb020" opacity=".8"/>
</svg>