<svg xmlns="http://www.w3.org/2000/svg" viewBox="0 0 600 600">
<defs>
<linearGradient id="bg" x1="0" y1="0" x2="1" y2="1"><stop offset="0" stop-color="#e3e8f8"/><stop offset="1" stop-color="#c3cdee"/></linearGradient>
<linearGradient id="scr" x1="0" y1="0" x2="1" y2="1"><stop offset="0" stop-color="#2447f5"/><stop offset="1" stop-color="#6d8bff"/></linearGradient>
</defs>
<rect width="600" height="600" fill="url(#bg)"/>
<ellipse cx="300" cy="530" rx="180" ry="14" fill="#0e1a2f" opacity=".12"/>

<rect x="130" y="160" width="340" height="230" rx="16" fill="#9aa5bd"/>
<rect x="142" y="172" width="316" height="206" rx="7" fill="url(#scr)"/>
<rect x="165" y="195" width="130" height="90" rx="8" fill="#fff" opacity=".22"/>
<rect x="310" y="195" width="125" height="14" rx="7" fill="#fff" opacity=".7"/>
<rect x="310" y="222" width="90" height="10" rx="5" fill="#fff" opacity=".4"/>
<rect x="165" y="305" width="270" height="10" rx="5" fill="#fff" opacity=".45"/>
<path d="M88 392 H512 L492 420 Q489 426 481 426 H119 Q111 426 108 420 Z" fill="#b8c1d6"/>
<rect x="262" y="392" width="76" height="8" rx="4" fill="#9aa5bd"/>
</svg>