<svg xmlns="http://www.w3.org/2000/svg" viewBox="0 0 600 600">
<defs>
<linearGradient id="bg" x1="0" y1="0" x2="1" y2="1"><stop offset="0" stop-color="#e3e8f8"/><stop offset="1" stop-color="#c3cdee"/></linearGradient>
<linearGradient id="scr" x1="0" y1="0" x2="1" y2="1"><stop offset="0" stop-color="#2447f5"/><stop offset="1" stop-color="#6d8bff"/></linearGradient>
</defs>
<rect width="600" height="600" fill="url(#bg)"/>
<ellipse cx="300" cy="530" rx="180" ry="14" fill="#0e1a2f" opacity=".12"/>

<rect x="80" y="160" width="440" height="290" rx="22" fill="#b8c1d6"/>
<rect x="104" y="185" width="28" height="24" rx="4" fill="#9aa5bd"/><rect x="138" y="185" width="28" height="24" rx="4" fill="#9aa5bd"/><rect x="172" y="185" width="28" height="24" rx="4" fill="#9aa5bd"/><rect x="206" y="185" width="28" height="24" rx="4" fill="#9aa5bd"/><rect x="240" y="185" width="28" height="24" rx="4" fill="#9aa5bd"/><rect x="274" y="185" width="28" height="24" rx="4" fill="#9aa5bd"/><rect x="308" y="185" width="28" height="24" rx="4" fill="#9aa5bd"/><rect x="342" y="185" width="28" height="24" rx="4" fill="#9aa5bd"/><rect x="376" y="185" width="28" height="24" rx="4" fill="#9aa5bd"/><rect x="410" y="185" width="28" height="24" rx="4" fill="#9aa5bd"/><rect x="444" y="185" width="28" height="24" rx="4" fill="#9aa5bd"/><rect x="478" y="185" width="28" height="24" rx="4" fill="#9aa5bd"/><rect x="104" y="215" width="28" height="24" rx="4" fill="#9aa5bd"/><rect x="138" y="215" width="28" height="24" rx="4" fill="#9aa5bd"/><rect x="172" y="215" width="28" height="24" rx="4" fill="#9aa5bd"/><rect x="206" y="215" width="28" height="24" rx="4" fill="#9aa5bd"/><rect x="240" y="215" width="28" height="24" rx="4" fill="#9aa5bd"/><rect x="274" y="215" width="28" height="24" rx="4" fill="#9aa5bd"/><rect x="308" y="215" width="28" height="24" rx="4" fill="#9aa5bd"/><rect x="342" y="215" width="28" height="24" rx="4" fill="#9aa5bd"/><rect x="376" y="215" width="28" height="24" rx="4" fill="#9aa5bd"/><rect x="410" y="215" width="28" height="24" rx="4" fill="#9aa5bd"/><rect x="444" y="215" width="28" height="24" rx="4" fill="#9aa5bd"/><rect x="478" y="215" width="28" height="24" rx="4" fill="#9aa5bd"/><rect x="104" y="245" width="28" height="24" rx="4" fill="#9aa5bd"/><rect x="138" y="245" width="28" height="24" rx="4" fill="#9aa5bd"/><rect x="172" y="245" width="28" height="24" rx="4" fill="#9aa5bd"/><rect x="206" y="245" width="28" height="24" rx="4" fill="#9aa5bd"/><rect x="240" y="245" width="28" height="24" rx="4" fill="#9aa5bd"/><rect x="274" y="245" width="28" height="24" rx="4" fill="#9aa5bd"/><rect x="308" y="245" width="28" height="24" rx="4" fill="#9aa5bd"/><rect x="342" y="245" width="28" height="24" rx="4" fill="#9aa5bd"/><rect x="376" y="245" width="28" height="24" rx="4" fill="#9aa5bd"/><rect x="410" y="245" width="28" height="24" rx="4" fill="#9aa5bd"/><rect x="444" y="245" width="28" height="24" rx="4" fill="#9aa5bd"/><rect x="478" y="245" width="28" height="24" rx="4" fill="#9aa5bd"/><rect x="104" y="275" width="28" height="24" rx="4" fill="#9aa5bd"/><rect x="138" y="275" width="28" height="24" rx="4" fill="#9aa5bd"/><rect x="172" y="275" width="28" height="24" rx="4" fill="#9aa5bd"/><rect x="206" y="275" width="28" height="24" rx="4" fill="#9aa5bd"/><rect x="240" y="275" width="28" height="24" rx="4" fill="#9aa5bd"/><rect x="274" y="275" width="28" height="24" rx="4" fill="#9aa5bd"/><rect x="308" y="275" width="28" height="24" rx="4" fill="#9aa5bd"/><rect x="342" y="275" width="28" height="24" rx="4" fill="#9aa5bd"/><rect x="376" y="275" width="28" height="24" rx="4" fill="#9aa5bd"/><rect x="410" y="275" width="28" height="24" rx="4" fill="#9aa5bd"/><rect x="444" y="275" width="28" height="24" rx="4" fill="#9aa5bd"/><rect x="478" y="275" width="28" height="24" rx="4" fill="#9aa5bd"/><rect x="104" y="305" width="28" height="24" rx="4" fill="#9aa5bd"/><rect x="138" y="305" width="28" height="24" rx="4" fill="#9aa5bd"/><rect x="172" y="305" width="28" height="24" rx="4" fill="#9aa5bd"/><rect x="206" y="305" width="28" height="24" rx="4" fill="#9aa5bd"/><rect x="240" y="305" width="28" height="24" rx="4" fill="#9aa5bd"/><rect x="274" y="305" width="28" height="24" rx="4" fill="#9aa5bd"/><rect x="308" y="305" width="28" height="24" rx="4" fill="#9aa5bd"/><rect x="342" y="305" width="28" height="24" rx="4" fill="#9aa5bd"/><rect x="376" y="305" width="28" height="24" rx="4" fill="#9aa5bd"/><rect x="410" y="305" width="28" height="24" rx="4" fill="#9aa5bd"/><rect x="444" y="305" width="28" height="24" rx="4" fill="#9aa5bd"/><rect x="478" y="305" width="28" height="24" rx="4" fill="#9aa5bd"/>
<rect x="236" y="345" width="128" height="86" rx="10" fill="#9aa5bd" opacity=".7"/>
</svg>